<svg width="120" height="120" viewBox="0 0 120 120" fill="none" xmlns="http://www.w3.org/2000/svg">
<g filter="url(#filter0_d_141_2)">
<path d="M10 85H110" stroke="black" stroke-width="1.5" stroke-linecap="round"/>
<path d="M60 35.0003C60 35.0003 67.5 29.8303 67.5 23.4553C67.5 12.1803 52.5 12.1803 52.5 23.4553C52.5 29.8303 60 35.0003 60 35.0003Z" stroke="black" stroke-width="1.5" stroke-linejoin="round"/>
<path d="M15 85L18.105 97.425C18.6458 99.5884 19.8941 101.509 21.6516 102.881C23.4092 104.254 25.575 105 27.805 105H92.19C94.42 105 96.5858 104.254 98.3434 102.881C100.101 101.509 101.349 99.5884 101.89 97.425L105 85M102.5 72.5C100.01 51.385 81.93 35 60 35C38.07 35 19.99 51.385 17.5 72.5" stroke="black" stroke-width="1.5" stroke-linecap="round"/>
</g>
<defs>
<filter id="filter0_d_141_2" x="5.25" y="14.249" width="109.5" height="99.501" filterUnits="userSpaceOnUse" color-interpolation-filters="sRGB">
<feFlood flood-opacity="0" result="BackgroundImageFix"/>
<feColorMatrix in="SourceAlpha" type="matrix" values="0 0 0 0 0 0 0 0 0 0 0 0 0 0 0 0 0 0 127 0" result="hardAlpha"/>
<feOffset dy="4"/>
<feGaussianBlur stdDeviation="2"/>
<feComposite in2="hardAlpha" operator="out"/>
<feColorMatrix type="matrix" values="0 0 0 0 0 0 0 0 0 0 0 0 0 0 0 0 0 0 0.25 0"/>
<feBlend mode="normal" in2="BackgroundImageFix" result="effect1_dropShadow_141_2"/>
<feBlend mode="normal" in="SourceGraphic" in2="effect1_dropShadow_141_2" result="shape"/>
</filter>
</defs>
</svg>
