<svg width="120" height="120" viewBox="0 0 120 120" fill="none" xmlns="http://www.w3.org/2000/svg">
<g filter="url(#filter0_d_139_6)">
<path d="M35 105H85M60 105C71.9347 105 83.3807 100.259 91.8198 91.8198C100.259 83.3807 105 71.9347 105 60H15C15 71.9347 19.7411 83.3807 28.1802 91.8198C36.6193 100.259 48.0653 105 60 105Z" stroke="black" stroke-width="2" stroke-linecap="round" stroke-linejoin="round"/>
<path d="M56.9 60.0003C53.8718 60.0286 50.9449 58.9108 48.7063 56.8713C46.4678 54.8318 45.0831 52.0213 44.8301 49.0036C44.577 45.9859 45.4743 42.9841 47.3419 40.6002C49.2095 38.2164 51.9094 36.6268 54.8999 36.1503C54.4211 34.0315 54.5265 31.8224 55.2047 29.7587C55.8829 27.695 57.1086 25.8541 58.7511 24.4324C60.3935 23.0107 62.391 22.0614 64.5306 21.6859C66.6702 21.3105 68.8716 21.5228 70.9 22.3003C71.7881 20.9021 72.9561 19.703 74.3305 18.7783C75.7048 17.8537 77.2557 17.2236 78.8855 16.9277C80.5152 16.6318 82.1886 16.6765 83.8003 17.059C85.412 17.4415 86.927 18.1536 88.2499 19.1503C90.5578 17.3365 93.4504 16.4314 96.3805 16.6063C99.3106 16.7813 102.075 18.0241 104.151 20.0997C106.226 22.1753 107.469 24.9397 107.644 27.8698C107.819 30.7999 106.914 33.6925 105.1 36.0003C106.229 37.5 106.99 39.2436 107.323 41.091C107.656 42.9384 107.55 44.8381 107.015 46.6374C106.481 48.4367 105.531 50.0854 104.243 51.451C102.955 52.8166 101.365 53.861 99.5999 54.5003C100.058 56.2998 100.109 58.1786 99.75 60.0003M64.9999 60.0003L84.9999 40.0003" stroke="black" stroke-width="2" stroke-linecap="round" stroke-linejoin="round"/>
<path d="M54.4998 36.2503C51.7572 33.3267 48.1975 31.297 44.2846 30.4259C40.3718 29.5549 36.2872 29.8827 32.5634 31.3669C28.8396 32.851 25.6493 35.4225 23.4083 38.7462C21.1672 42.07 19.9795 45.9917 19.9998 50.0003C19.9998 53.6503 20.9998 57.0503 22.6998 60.0003" stroke="black" stroke-width="2" stroke-linecap="round" stroke-linejoin="round"/>
</g>
<defs>
<filter id="filter0_d_139_6" x="10" y="15.585" width="102.666" height="98.415" filterUnits="userSpaceOnUse" color-interpolation-filters="sRGB">
<feFlood flood-opacity="0" result="BackgroundImageFix"/>
<feColorMatrix in="SourceAlpha" type="matrix" values="0 0 0 0 0 0 0 0 0 0 0 0 0 0 0 0 0 0 127 0" result="hardAlpha"/>
<feOffset dy="4"/>
<feGaussianBlur stdDeviation="2"/>
<feComposite in2="hardAlpha" operator="out"/>
<feColorMatrix type="matrix" values="0 0 0 0 0 0 0 0 0 0 0 0 0 0 0 0 0 0 0.25 0"/>
<feBlend mode="normal" in2="BackgroundImageFix" result="effect1_dropShadow_139_6"/>
<feBlend mode="normal" in="SourceGraphic" in2="effect1_dropShadow_139_6" result="shape"/>
</filter>
</defs>
</svg>
