<svg width="120" height="120" viewBox="0 0 120 120" fill="none" xmlns="http://www.w3.org/2000/svg">
<g filter="url(#filter0_d_139_4)">
<path d="M35 105H85M97.5 60L110 30M81.25 15C82.6 15.5 85.25 17.65 85 21.8C84.7 25.95 80.35 27.8 80 31.9C79.75 35.8 81.7 38.1 83.65 40M56.25 15C57.6 15.5 60.25 17.65 59.95 21.8C59.7 25.95 55.3 27.8 55.05 31.9C54.75 35.8 56.7 38.1 58.65 40M31.25 15C32.6 15.5 35.25 17.65 35 21.8C34.7 25.95 30.35 27.8 30 31.9C29.75 35.8 31.7 38.1 33.7 40M60 105C71.9347 105 83.3807 100.259 91.8198 91.8198C100.259 83.3807 105 71.9347 105 60H15C15 71.9347 19.7411 83.3807 28.1802 91.8198C36.6193 100.259 48.0653 105 60 105Z" stroke="black" stroke-width="2" stroke-linecap="round" stroke-linejoin="round" shape-rendering="crispEdges"/>
</g>
<defs>
<filter id="filter0_d_139_4" x="10" y="14" width="105" height="100" filterUnits="userSpaceOnUse" color-interpolation-filters="sRGB">
<feFlood flood-opacity="0" result="BackgroundImageFix"/>
<feColorMatrix in="SourceAlpha" type="matrix" values="0 0 0 0 0 0 0 0 0 0 0 0 0 0 0 0 0 0 127 0" result="hardAlpha"/>
<feOffset dy="4"/>
<feGaussianBlur stdDeviation="2"/>
<feComposite in2="hardAlpha" operator="out"/>
<feColorMatrix type="matrix" values="0 0 0 0 0 0 0 0 0 0 0 0 0 0 0 0 0 0 0.25 0"/>
<feBlend mode="normal" in2="BackgroundImageFix" result="effect1_dropShadow_139_4"/>
<feBlend mode="normal" in="SourceGraphic" in2="effect1_dropShadow_139_4" result="shape"/>
</filter>
</defs>
</svg>
